<?xml version="1.0" encoding="UTF-8"?>
<svg xmlns="http://www.w3.org/2000/svg" width="1280" height="640" viewBox="0 0 1280 640" role="img" aria-label="Cadence.">
  <defs>
    <linearGradient id="scene" x1="10%" y1="0%" x2="90%" y2="100%">
      <stop offset="0%" stop-color="#2A1848"/>
      <stop offset="45%" stop-color="#1A102F"/>
      <stop offset="100%" stop-color="#0E0A1A"/>
    </linearGradient>
    <linearGradient id="bg" x1="18%" y1="0%" x2="82%" y2="100%">
      <stop offset="0%" stop-color="#2A1848"/>
      <stop offset="55%" stop-color="#1A102F"/>
      <stop offset="100%" stop-color="#0E0A1A"/>
    </linearGradient>
    <linearGradient id="pulse" x1="0%" y1="50%" x2="100%" y2="50%">
      <stop offset="0%" stop-color="#C4A8FF"/>
      <stop offset="45%" stop-color="#A882FF"/>
      <stop offset="100%" stop-color="#7C5CFF"/>
    </linearGradient>
    <linearGradient id="facet" x1="30%" y1="10%" x2="70%" y2="90%">
      <stop offset="0%" stop-color="#B794FF" stop-opacity="0.95"/>
      <stop offset="100%" stop-color="#6E4FE0" stop-opacity="0.95"/>
    </linearGradient>
    <radialGradient id="glow" cx="50%" cy="42%" r="45%">
      <stop offset="0%" stop-color="#A882FF" stop-opacity="0.22"/>
      <stop offset="100%" stop-color="#A882FF" stop-opacity="0"/>
    </radialGradient>
  </defs>
  <rect width="1280" height="640" fill="url(#scene)"/>
  <ellipse cx="640" cy="280" rx="420" ry="220" fill="url(#glow)"/>
  <g transform="translate(576,96) scale(1)">
    <rect width="128" height="128" rx="30" fill="url(#bg)"/>
    <circle cx="64" cy="64" r="44" fill="#A882FF" opacity="0.07"/>
    <path fill="url(#facet)" d="M78 34c-16.5 0-30 13-30 30s13.5 30 30 30c7.2 0 13.8-2.4 19-6.5l-7.2-8.8c-3.2 2.4-7.2 3.8-11.8 3.8-10.5 0-19-8.3-19-18.5S67.5 45.5 78 45.5c4.6 0 8.6 1.4 11.8 3.8l7.2-8.8C91.8 36.4 85.2 34 78 34z"/>
    <path fill="none" stroke="url(#pulse)" stroke-width="5.5" stroke-linecap="round" stroke-linejoin="round" d="M58 64h8 M70 52v24 M80 58v12"/>
  </g>
  <g transform="translate(390,260) scale(1.05)">
    <path fill-rule="nonzero" fill="#F4F0FF" d="M196.368 102.72C201.768 102.72 207.96 101.28 211.776 99.192L209.04 90.192C206.16 91.2 202.488 91.776 199.392 91.776C189.384 91.776 183.624 85.872 183.624 76.152C183.624 67.008 188.736 62.328 197.808 62.328C201.696 62.328 206.232 63.048 208.968 64.2L212.424 54.408C207.6 52.32 202.92 51.312 197.952 51.312C181.896 51.312 170.664 61.68 170.664 77.376C170.664 92.568 181.176 102.72 196.368 102.72ZM240.72 102H249.72V82.416C249.72 71.76 243.816 66 232.296 66C226.824 66 221.064 67.296 216.6 69.456L219.48 77.88C223.152 76.584 226.536 75.936 229.632 75.936C234.528 75.936 237.408 77.592 237.552 80.688C222.864 81.048 216.168 84.576 216.168 92.064C216.168 98.472 220.992 102.72 228.624 102.72C233.16 102.72 236.76 101.208 239.424 98.256ZM237.552 91.776C236.256 92.856 234.672 93.432 232.944 93.432C230.424 93.432 228.696 92.136 228.696 90.264C228.696 88.032 231.144 87.096 237.552 86.88ZM270.672 102.72C275.28 102.72 279.168 100.632 281.76 97.104L284.208 102H291.84V48.792H279.888V68.304C277.8 66.792 275.28 66 272.256 66C262.392 66 255.768 73.416 255.768 84.648C255.768 95.592 262.032 102.72 270.672 102.72ZM279.888 89.904C278.664 91.488 276.792 92.352 274.632 92.352C270.744 92.352 268.44 89.328 268.44 84.144C268.44 79.248 270.672 76.368 274.488 76.368C276.648 76.368 278.592 77.304 279.888 78.888ZM319.272 102.72C323.592 102.72 328.128 101.928 332.592 100.416L329.856 91.992C326.904 93 324.096 93.504 321.216 93.504C315.96 93.504 312.792 91.776 311.568 87.816H332.736C333.024 86.016 333.24 84.216 333.24 82.344C333.24 72.048 327.336 66 317.256 66C306.096 66 298.68 73.344 298.68 84.432C298.68 95.808 306.456 102.72 319.272 102.72ZM311.136 80.976C311.568 77.088 313.368 75.144 316.392 75.144C319.632 75.144 321.504 77.232 321.504 80.976ZM362.544 102H375V81.552C375 71.904 370.32 66.288 362.328 66.288C357.864 66.288 353.904 68.088 351.024 71.328L349.08 66.72H340.08V102H352.536V78.96C354.048 77.736 355.704 77.088 357.648 77.088C361.032 77.088 362.544 78.96 362.544 82.92ZM400.2 102.72C404.52 102.72 408.192 101.856 411.864 99.984L409.128 91.56C407.04 92.424 404.88 92.784 402.864 92.784C397.032 92.784 393.72 89.688 393.72 84.144C393.72 79.176 396.384 76.368 401.712 76.368C404.088 76.368 406.968 76.872 409.128 77.592L411.648 67.944C408.768 66.72 404.808 66 401.064 66C388.824 66 381.048 73.344 381.048 85.008C381.048 96.168 388.176 102.72 400.2 102.72ZM436.416 102.72C440.736 102.72 445.272 101.928 449.736 100.416L447 91.992C444.048 93 441.24 93.504 438.36 93.504C433.104 93.504 429.936 91.776 428.712 87.816H449.88C450.168 86.016 450.384 84.216 450.384 82.344C450.384 72.048 444.48 66 434.4 66C423.24 66 415.824 73.344 415.824 84.432C415.824 95.808 423.6 102.72 436.416 102.72ZM428.28 80.976C428.712 77.088 430.512 75.144 433.536 75.144C436.776 75.144 438.648 77.232 438.648 80.976Z" transform="translate(-168,0)"/>
    <path fill-rule="nonzero" fill="#A882FF" d="M463.056 102.72C467.664 102.72 470.688 99.408 470.688 95.088C470.688 90.48 467.664 87.168 463.056 87.168C458.448 87.168 455.424 90.48 455.424 95.088C455.424 99.408 458.448 102.72 463.056 102.72Z" transform="translate(-168,0)"/>
  </g>
  <text x="640" y="420" text-anchor="middle" fill="#C9B8F0" font-family="Cantarell, Adwaita Sans, sans-serif" font-size="28" font-weight="500">A modern, native music library for Linux</text>
</svg>
